<?xml version="1.0" standalone="no"?>
<!DOCTYPE svg PUBLIC "-//W3C//DTD SVG 20010904//EN"
 "http://www.w3.org/TR/2001/REC-SVG-20010904/DTD/svg10.dtd">
<svg version="1.0" xmlns="http://www.w3.org/2000/svg"
 width="1600.000000pt" height="1600.000000pt" viewBox="0 0 1600.000000 1600.000000"
 preserveAspectRatio="xMidYMid meet">
<metadata>
Created by potrace 1.14, written by Peter Selinger 2001-2017
</metadata>
<g transform="translate(0.000000,1600.000000) scale(0.100000,-0.100000)"
fill="#000000" stroke="none">
<path d="M1965 12249 c-455 -52 -818 -416 -875 -879 -14 -118 -14 -6622 0
-6740 29 -234 131 -440 297 -601 165 -161 359 -253 588 -279 125 -14 11925
-14 12050 0 467 53 827 412 885 880 14 118 14 6622 0 6740 -28 227 -120 420
-279 583 -163 168 -371 270 -606 297 -109 12 -11952 12 -12060 -1z m12087
-686 c66 -30 133 -96 165 -162 l28 -56 0 -3345 0 -3345 -28 -56 c-32 -66 -99
-132 -165 -162 l-47 -22 -6005 0 -6005 0 -47 22 c-66 30 -133 96 -165 162
l-28 56 -3 3325 c-2 3671 -7 3382 61 3471 45 59 98 99 159 120 51 18 260 18
6043 16 l5990 -2 47 -22z"/>
<path d="M12250 8735 l0 -775 -360 0 c-198 0 -360 -2 -360 -4 0 -4 522 -706
615 -826 17 -21 129 -172 250 -334 l220 -296 20 26 c11 15 151 203 311 418
161 215 305 408 320 428 58 75 89 117 261 348 l175 235 -361 3 -361 2 0 775 0
775 -365 0 -365 0 0 -775z"/>
<path d="M2746 8723 c-277 -59 -457 -246 -512 -531 -19 -99 -18 -294 2 -390
53 -261 221 -444 463 -507 107 -27 261 -38 379 -25 316 34 516 197 593 485 32
116 32 385 1 496 -72 264 -245 421 -520 475 -95 18 -315 17 -406 -3z m301
-328 c118 -35 183 -126 205 -287 12 -90 2 -239 -22 -320 -20 -68 -70 -130
-132 -162 -49 -24 -68 -29 -137 -29 -103 0 -174 32 -226 100 -48 62 -66 127
-72 259 -7 130 7 227 43 301 60 124 199 180 341 138z"/>
<path d="M3800 8005 l0 -715 220 0 220 0 0 715 0 715 -220 0 -220 0 0 -715z"/>
<path d="M4380 8545 l0 -175 223 -2 222 -3 3 -537 2 -538 220 0 220 0 0 540 0
540 225 0 225 0 0 175 0 175 -670 0 -670 0 0 -175z"/>
<path d="M5811 8017 c-145 -386 -266 -708 -268 -714 -4 -10 44 -13 220 -13
l226 0 26 88 c14 48 30 98 34 112 l8 25 253 0 253 0 8 -25 c4 -14 20 -64 35
-112 l26 -88 229 0 c126 0 229 3 229 7 0 4 -120 326 -266 715 l-267 708 -241
0 -241 0 -264 -703z m652 -179 c-7 -13 -303 -10 -303 3 0 10 133 454 146 489
3 8 41 -97 83 -235 43 -137 76 -253 74 -257z"/>
<path d="M10488 8475 l-3 -245 -52 39 c-76 57 -139 76 -253 75 -74 0 -107 -5
-153 -23 -116 -46 -203 -140 -248 -271 -31 -90 -38 -297 -15 -403 22 -98 75
-206 130 -265 146 -156 436 -154 575 5 21 24 41 43 45 43 3 0 6 -31 6 -70 l0
-70 185 0 185 0 0 715 0 715 -200 0 -200 0 -2 -245z m-109 -439 c80 -42 119
-139 108 -270 -11 -133 -72 -206 -172 -206 -68 0 -112 29 -145 95 -21 42 -24
63 -24 150 0 87 3 108 24 150 31 63 78 95 137 95 24 0 57 -7 72 -14z"/>
<path d="M8495 8337 c-77 -20 -123 -46 -186 -105 l-59 -54 0 71 0 71 -185 0
-185 0 0 -515 0 -515 199 0 200 0 3 318 c3 296 4 319 23 351 60 102 192 107
238 8 15 -30 17 -77 17 -356 l0 -321 199 0 200 0 3 318 c3 296 4 319 23 351
44 74 124 100 185 59 68 -46 70 -55 70 -410 l0 -318 200 0 200 0 0 358 c0 275
-4 373 -15 426 -27 128 -77 196 -179 242 -55 26 -72 28 -166 28 -132 -1 -189
-21 -287 -104 l-71 -59 -27 39 c-34 49 -82 86 -137 106 -59 21 -201 27 -263
11z"/>
<path d="M7210 7490 l0 -200 215 0 215 0 -2 198 -3 197 -212 3 -213 2 0 -200z"/>
<path d="M4918 5866 c-138 -57 -205 -114 -379 -327 -176 -215 -241 -270 -338
-285 -47 -8 -83 0 -105 22 -22 21 -20 41 4 47 22 6 27 36 8 55 -32 32 -88 -4
-88 -56 0 -89 141 -130 252 -72 76 39 125 88 261 258 147 184 238 274 319 315
29 16 42 20 28 11 -14 -10 -57 -49 -95 -89 -72 -72 -100 -120 -203 -345 -21
-47 -55 -106 -75 -132 -20 -27 -33 -48 -29 -48 15 0 106 62 161 108 30 26 106
112 170 192 132 167 206 242 282 287 85 49 113 52 49 5 -86 -65 -154 -154
-232 -307 -40 -76 -92 -163 -115 -192 -24 -29 -40 -53 -35 -53 18 0 100 59
135 99 52 57 93 124 167 269 45 88 78 139 116 179 l54 55 61 -7 c50 -6 61 -5
57 6 -7 21 -76 23 -146 3 -76 -20 -188 -91 -253 -160 -25 -27 -81 -94 -124
-149 -87 -111 -204 -236 -250 -268 -25 -17 -23 -13 11 24 57 60 99 129 179
291 71 146 138 233 200 262 19 9 35 19 35 21 0 10 -27 4 -82 -19z"/>
<path d="M8974 5856 c-308 -100 -511 -418 -367 -577 56 -62 139 -75 255 -39
108 33 188 119 188 199 0 130 -156 150 -250 31 -17 -22 -30 -40 -27 -40 2 0
27 23 54 50 38 38 57 50 81 50 112 0 86 -196 -36 -267 -59 -35 -138 -39 -172
-8 -76 67 -61 225 34 368 50 76 159 176 230 211 113 57 216 44 216 -27 -1 -68
-79 -157 -139 -157 -45 0 -74 27 -69 66 2 18 0 30 -4 28 -18 -11 -7 -61 17
-84 21 -20 36 -24 78 -24 96 2 177 65 177 139 0 95 -115 130 -266 81z"/>
<path d="M10759 5861 c-20 -11 -56 -25 -80 -31 -194 -52 -372 -285 -357 -466
8 -99 69 -148 173 -141 80 6 148 41 234 123 69 64 71 65 113 59 28 -4 58 -1
86 8 23 8 42 13 42 12 0 -2 -13 -29 -30 -60 -35 -66 -38 -105 -10 -130 30 -27
83 -14 149 38 l57 44 -4 -32 c-3 -25 1 -36 19 -49 46 -32 102 -15 192 58 56
45 57 46 57 21 0 -96 95 -125 181 -55 l37 29 6 -29 c11 -60 96 -50 181 21 51
42 165 168 165 182 0 4 -22 -18 -48 -50 -91 -109 -185 -182 -218 -169 -31 12
-7 68 87 208 33 48 59 88 59 90 0 11 -96 -7 -103 -19 -7 -11 -13 -9 -32 11
-29 32 -81 34 -141 7 -54 -25 -121 -85 -144 -130 -35 -69 -152 -171 -197 -171
-13 0 -26 7 -30 16 -7 20 6 48 80 172 l62 102 57 0 c75 0 85 18 13 22 l-55 3
35 53 36 52 -50 0 -50 0 -31 -55 c-28 -50 -35 -55 -65 -55 -19 0 -37 -4 -40
-10 -4 -6 8 -10 29 -10 l36 0 -51 -82 c-77 -124 -176 -219 -214 -204 -31 11
-9 64 89 216 30 47 53 86 51 89 -2 2 -23 0 -47 -3 -37 -6 -47 -13 -73 -54 -25
-39 -39 -50 -83 -65 -34 -11 -66 -15 -91 -11 l-39 6 25 37 c38 54 69 120 87
180 51 172 -31 288 -155 222z m77 -22 c31 -34 26 -161 -10 -271 -15 -48 -34
-95 -41 -105 -19 -25 -44 -8 -75 53 -48 94 -26 301 33 312 29 6 57 -27 58 -67
1 -25 3 -29 6 -12 7 37 -6 71 -32 83 -13 6 -22 15 -19 19 10 17 61 9 80 -12z
m-157 -63 c-61 -109 -47 -226 37 -309 l45 -44 -40 -51 c-71 -89 -147 -135
-218 -130 -61 4 -85 35 -91 116 -12 162 110 386 243 449 27 12 51 23 53 23 1
0 -12 -25 -29 -54z m1021 -241 c43 -51 -92 -285 -164 -285 -77 0 -47 156 49
257 45 46 91 57 115 28z"/>
<path d="M6029 5640 c-139 -229 -161 -253 -196 -217 -20 19 -11 74 18 111 l20
26 -33 0 c-43 0 -81 -24 -155 -97 -32 -32 -39 -40 -14 -17 80 71 80 71 74 26
-9 -67 47 -100 121 -72 l25 9 -33 -52 c-18 -29 -42 -68 -54 -89 l-22 -36 42 5
c24 3 48 12 53 20 6 8 31 44 58 80 49 67 55 79 35 67 -7 -4 -6 1 3 12 9 10 78
115 152 232 l136 212 -48 0 -49 0 -133 -220z"/>
<path d="M6844 5852 c-5 -4 -52 -77 -104 -162 -51 -85 -97 -159 -101 -164 -4
-5 -20 1 -35 13 -52 41 -142 19 -224 -55 -23 -21 -50 -54 -60 -73 -31 -60
-156 -171 -192 -171 -18 0 -19 5 -13 60 5 43 3 65 -6 76 -10 13 -10 17 2 25 8
5 20 9 27 9 23 0 91 40 102 59 15 29 12 56 -8 74 -41 38 -119 7 -202 -80 l-55
-57 63 57 c67 61 108 79 123 56 15 -25 10 -55 -16 -83 -26 -28 -29 -29 -94
-30 -28 -1 -46 -6 -49 -15 -4 -11 3 -13 32 -8 20 3 36 4 36 2 0 -1 -9 -22 -20
-46 -24 -53 -25 -82 -4 -103 36 -36 122 -5 201 72 l48 48 0 -49 c0 -40 5 -53
25 -69 36 -29 99 -20 151 21 34 28 39 29 39 13 0 -26 31 -52 63 -52 41 0 77
18 134 66 37 32 53 41 53 29 0 -52 51 -95 114 -95 91 0 217 89 245 171 l12 36
34 -16 c24 -11 33 -21 28 -31 -45 -112 -16 -172 74 -155 26 5 52 21 85 54 l48
48 0 -29 c0 -18 10 -39 26 -55 23 -23 31 -25 83 -20 96 8 180 62 228 146 15
25 27 47 28 48 1 2 60 -17 73 -23 1 -1 -20 -38 -48 -83 l-50 -81 43 0 c43 0
44 1 92 73 26 39 48 78 48 85 0 6 3 10 5 7 7 -6 32 15 32 27 0 5 -5 6 -11 2
-7 -4 6 17 28 47 61 83 60 79 5 79 l-50 0 -38 -67 c-41 -72 -54 -80 -97 -64
-24 9 -27 16 -27 59 0 69 -47 107 -80 67 -11 -13 -11 -23 0 -54 11 -35 10 -43
-16 -97 -52 -110 -161 -191 -201 -151 -27 26 -6 82 72 198 l74 109 -48 0 -48
0 -69 -112 c-83 -136 -143 -201 -182 -196 -58 7 -30 96 74 236 l54 72 -49 0
-49 0 -42 -65 c-31 -48 -48 -65 -65 -65 -26 0 -51 25 -60 62 -4 14 -18 37 -32
50 -20 19 -35 23 -86 22 -101 0 -196 -62 -241 -157 -38 -79 -125 -157 -177
-157 -48 0 -12 73 201 400 69 107 130 201 134 208 5 9 -4 12 -36 12 -24 0 -48
-4 -54 -8z m-259 -319 c37 -36 -14 -172 -92 -243 -96 -89 -148 -17 -84 115 35
71 56 99 96 125 37 24 58 25 80 3z m460 -4 c24 -75 -84 -276 -158 -294 -69
-18 -74 57 -13 180 20 40 52 87 71 104 43 37 90 42 100 10z"/>
<path d="M9326 5734 c-9 -8 -16 -24 -16 -33 0 -48 74 -52 86 -6 12 47 -36 73
-70 39z"/>
<path d="M11156 5734 c-9 -8 -16 -24 -16 -33 0 -48 74 -52 86 -6 12 47 -36 73
-70 39z"/>
<path d="M9480 5605 c-28 -50 -35 -55 -65 -55 -19 0 -37 -4 -40 -10 -4 -6 8
-10 30 -10 l35 0 -41 -67 c-71 -114 -198 -233 -234 -219 -31 11 -9 64 89 216
30 47 53 86 51 89 -2 2 -24 0 -47 -3 -43 -6 -45 -9 -106 -109 -70 -116 -85
-166 -57 -197 34 -37 85 -24 167 43 l55 44 -1 -40 c-1 -51 30 -74 86 -63 36 7
154 83 144 94 -4 3 -19 -6 -34 -20 -63 -58 -116 -75 -129 -42 -7 20 6 48 80
172 l62 102 57 0 c75 0 85 18 13 22 l-55 3 35 53 36 52 -50 0 -50 0 -31 -55z"/>
<path d="M5214 5541 c-61 -28 -122 -87 -154 -151 -24 -48 -37 -61 -87 -87 -77
-41 -151 -55 -256 -49 -75 5 -87 3 -87 -11 0 -13 14 -15 113 -11 120 5 184 23
258 73 38 24 39 25 39 5 0 -35 29 -79 56 -86 38 -10 85 4 125 36 l37 29 5 -29
c11 -52 83 -52 156 1 l42 30 -16 -31 -16 -30 43 0 c43 0 44 1 93 78 27 42 50
83 50 89 0 7 24 44 52 83 l52 70 -52 0 -52 0 -59 -102 c-73 -124 -96 -151
-152 -184 -46 -27 -74 -26 -74 1 0 24 36 91 101 187 33 48 59 88 59 90 0 11
-96 -7 -103 -19 -7 -11 -13 -9 -32 11 -29 32 -81 34 -141 7z m126 -6 c43 -51
-92 -285 -164 -285 -77 0 -47 156 49 257 45 46 91 57 115 28z"/>
<path d="M8080 5540 c-19 -10 -55 -40 -80 -66 l-45 -48 58 52 c58 51 96 70
116 57 21 -12 10 -37 -49 -119 -68 -93 -81 -133 -56 -171 23 -35 70 -33 128 5
43 29 188 186 197 213 2 7 -12 -6 -30 -28 -18 -22 -67 -75 -110 -117 -57 -57
-84 -78 -103 -78 -40 0 -33 38 20 110 25 35 54 77 65 94 53 87 -16 147 -111
96z"/>
<path d="M9620 5439 c-70 -118 -85 -173 -55 -203 35 -35 100 -13 179 63 55 53
52 44 -33 -94 -63 -103 -140 -189 -193 -216 -83 -42 -165 -33 -193 22 -30 57
-7 134 43 145 51 11 47 14 -12 11 -52 -3 -63 -8 -88 -36 -55 -62 -22 -148 65
-172 65 -18 166 -5 240 30 68 32 171 127 203 186 11 21 28 37 44 40 64 14 241
163 280 235 18 34 6 22 -47 -42 -53 -67 -136 -137 -199 -167 -22 -11 -40 -18
-42 -17 -1 2 22 45 51 97 29 52 70 124 90 162 l38 67 -43 0 -43 -1 -44 -79
c-70 -128 -185 -242 -227 -226 -8 3 -14 13 -14 23 0 19 57 124 123 226 l38 57
-48 0 -48 0 -65 -111z"/>
</g>
</svg>
